<?xml version="1.0" encoding="utf-8"?>
<!-- Generator: Adobe Illustrator 23.0.5, SVG Export Plug-In . SVG Version: 6.00 Build 0)  -->
<svg version="1.1" id="Layer_1" xmlns="http://www.w3.org/2000/svg" xmlns:xlink="http://www.w3.org/1999/xlink" x="0px" y="0px"
	 viewBox="0 0 24 24" style="enable-background:new 0 0 24 24;" xml:space="preserve">
<style type="text/css">
	.st0{fill:#585858;}
</style>
<g id="food_1_">
	<path class="st0" d="M21.8,15.6h-2c0-0.2-0.1-0.3-0.1-0.5l3.5-1.7c0.4-0.2,0.5-0.6,0.3-1s-0.6-0.5-1-0.3l-3.3,1.7
		C18,11,15.2,9.1,12,9.1c-3.9,0-7.2,2.8-7.9,6.6h-2c-1,0-1.8,0.8-1.8,1.8c0,0.4,0.1,0.7,0.4,1l2.5,2.9v0.5c0,1,0.8,1.8,1.8,1.8h13.8
		c1,0,1.8-0.8,1.8-1.8v-0.5l2.5-2.9c0.2-0.3,0.4-0.6,0.4-1C23.7,16.5,22.8,15.6,21.8,15.6z M19.1,15.6h-0.4l0.4-0.2
		C19.1,15.5,19.1,15.6,19.1,15.6z M12,9.8c2.9,0,5.5,1.7,6.6,4.3L18,14.4c-1-2.3-3.3-3.9-6-3.9c-3.1,0-5.7,2.2-6.4,5.1H4.9
		C5.5,12.3,8.5,9.8,12,9.8z M15.3,15.6c-0.6-1.3-1.8-2.2-3.3-2.2s-2.8,0.9-3.3,2.2H7.9c0.6-1.7,2.2-2.9,4.1-2.9c1.8,0,3.3,1.1,4,2.6
		l-0.5,0.3C15.5,15.6,15.3,15.6,15.3,15.6z M12,14.9c-0.6,0-1.2,0.3-1.6,0.7H9.5c0.5-0.9,1.4-1.5,2.5-1.5s2,0.6,2.5,1.5h-0.9
		C13.2,15.2,12.6,14.9,12,14.9z M12,12c-2.3,0-4.3,1.5-4.9,3.6H6.4c0.7-2.5,2.9-4.4,5.6-4.4c2.4,0,4.4,1.4,5.3,3.4L16.7,15
		C15.9,13.3,14.1,12,12,12z M19.3,20.7v1.1c0,0.2-0.2,0.4-0.4,0.4H5.1c-0.2,0-0.4-0.2-0.4-0.4v-1.1l-2.9-3.3C1.8,17.2,2,17,2.2,17H4
		h0.7h0.7h0.7h0.7h0.7h0.7h0.7h0.7H14h0.7h0.7h0.7h0.7h0.7h0.7h0.7H20h1.8c0.2,0,0.4,0.2,0.4,0.4L19.3,20.7z"/>
	<path class="st0" d="M6.2,8.9L6.2,8.9L6.2,8.9c0,0.1,0.1,0.2,0.3,0.2s0.4-0.2,0.4-0.4V8.6l0,0C6.6,8,6.8,7.3,7.1,6.5
		c0.3-0.8,0.7-1.7,0.3-2.7c0-0.1-0.1-0.2-0.3-0.2C6.9,3.6,6.8,3.8,6.8,4v0.1l0,0l0,0l0,0c0.3,0.7,0,1.3-0.3,2.1
		C6.1,7,5.8,7.9,6.2,8.9C6.1,8.9,6.1,8.9,6.2,8.9z"/>
	<path class="st0" d="M15,8.8L15,8.8L15,8.8C15.1,8.9,15.2,9,15.4,9s0.4-0.2,0.4-0.4V8.5l0,0c-0.3-0.6,0-1.3,0.3-2.1
		s0.7-1.7,0.3-2.7c-0.1-0.1-0.2-0.2-0.3-0.2c-0.2,0-0.4,0.2-0.4,0.4V4l0,0l0,0l0,0c0.3,0.7,0,1.3-0.3,2.1C15,6.9,14.6,7.8,15,8.8
		C15,8.7,15,8.8,15,8.8z"/>
	<path class="st0" d="M11.3,5.6L11.3,5.6L11.3,5.6c0.1,0.1,0.2,0.2,0.3,0.2c0.2,0,0.4-0.2,0.4-0.4V5.3l0,0c-0.3-0.6,0-1.3,0.3-2.1
		s0.7-1.7,0.3-2.7c-0.1-0.1-0.2-0.2-0.3-0.2c-0.2,0-0.4,0.2-0.4,0.4v0.1l0,0l0,0l0,0c0.3,0.7,0,1.3-0.3,2.1
		C11.3,3.8,10.9,4.7,11.3,5.6L11.3,5.6z"/>
</g>
</svg>
