<?xml version="1.0" encoding="utf-8"?>
<!-- Generator: Adobe Illustrator 23.0.5, SVG Export Plug-In . SVG Version: 6.00 Build 0)  -->
<svg version="1.1" id="Layer_1" xmlns="http://www.w3.org/2000/svg" xmlns:xlink="http://www.w3.org/1999/xlink" x="0px" y="0px"
	 viewBox="0 0 24 24" style="enable-background:new 0 0 24 24;" xml:space="preserve">
<style type="text/css">
	.st0{fill:#585858;}
</style>
<g id="Expanded">
	<g>
		<g>
			<path class="st0" d="M17.5,22.9H6.6c-0.2,0-0.4-0.2-0.5-0.4L5.2,11.1C3.4,10.9,2,9.3,2,7.5c0-2,1.7-3.7,3.6-3.7
				C6,3.8,6.4,3.9,6.8,4C7.5,2.2,9.5,1.1,12,1.1c2.4,0,4,1,5.1,2.9c0.4-0.2,0.8-0.3,1.3-0.3c2,0,3.6,1.7,3.6,3.7
				c0,1.9-1.4,3.4-3.2,3.6l-0.9,11.4C17.9,22.7,17.7,22.9,17.5,22.9z M7,22h10l0.9-11.4c0-0.2,0.2-0.4,0.5-0.4
				c1.5,0,2.7-1.2,2.7-2.7c0-1.6-1.4-2.8-2.7-2.8c-0.4,0-0.9,0.1-1.2,0.4c-0.1,0.1-0.3,0.1-0.4,0.1s-0.2-0.1-0.3-0.3
				C15.6,2.9,14.2,2,12,2C9.7,2,7.9,3.1,7.6,4.7C7.6,4.8,7.5,5,7.3,5C7.2,5.1,7,5.1,6.9,5C6.5,4.8,6.1,4.7,5.7,4.7
				C4.4,4.7,3,5.8,3,7.5c0,1.5,1.2,2.7,2.7,2.7c0.2,0,0.4,0.2,0.5,0.4L7,22z"/>
		</g>
		<g>
			<path class="st0" d="M17.7,19.3H6.3c-0.3,0-0.5-0.2-0.5-0.5s0.2-0.5,0.5-0.5h11.5c0.3,0,0.5,0.2,0.5,0.5S18,19.3,17.7,19.3z"/>
		</g>
		<g>
			<path class="st0" d="M9.7,19.3c-0.3,0-0.5-0.2-0.5-0.5v-3.6c0-0.3,0.2-0.5,0.5-0.5s0.5,0.2,0.5,0.5v3.6
				C10.2,19.1,10,19.3,9.7,19.3z"/>
		</g>
		<g>
			<path class="st0" d="M12,19.3c-0.3,0-0.5-0.2-0.5-0.5v-4.5c0-0.3,0.2-0.5,0.5-0.5s0.5,0.2,0.5,0.5v4.5
				C12.5,19.1,12.3,19.3,12,19.3z"/>
		</g>
		<g>
			<path class="st0" d="M14.3,19.3c-0.3,0-0.5-0.2-0.5-0.5v-3.6c0-0.3,0.2-0.5,0.5-0.5s0.5,0.2,0.5,0.5v3.6
				C14.7,19.1,14.5,19.3,14.3,19.3z"/>
		</g>
	</g>
</g>
</svg>
