<?xml version="1.0" encoding="utf-8"?>
<!-- Generator: Adobe Illustrator 23.0.5, SVG Export Plug-In . SVG Version: 6.00 Build 0)  -->
<svg version="1.1"
	 id="svg8" xmlns:cc="http://creativecommons.org/ns#" xmlns:dc="http://purl.org/dc/elements/1.1/" xmlns:rdf="http://www.w3.org/1999/02/22-rdf-syntax-ns#" xmlns:svg="http://www.w3.org/2000/svg"
	 xmlns="http://www.w3.org/2000/svg" xmlns:xlink="http://www.w3.org/1999/xlink" x="0px" y="0px" viewBox="0 0 24 24"
	 style="enable-background:new 0 0 24 24;" xml:space="preserve">
<style type="text/css">
	.st0{fill:#585858;}
</style>
<g>
	<path class="st0" d="M12,23.7c-0.8,0-1.6-0.1-2.4-0.2c-0.7-0.2-1.5-0.4-2.2-0.7c-0.7-0.3-1.4-0.7-2-1.1c-0.6-0.4-1.2-0.9-1.7-1.4
		c-0.5-0.5-1-1.1-1.4-1.7c-0.4-0.6-0.8-1.3-1.1-2c-0.3-0.7-0.5-1.4-0.7-2.2c-0.2-0.8-0.2-1.6-0.2-2.4s0.1-1.6,0.2-2.4
		c0.2-0.7,0.4-1.5,0.7-2.2c0.3-0.7,0.7-1.4,1.1-2c0.4-0.6,0.9-1.2,1.4-1.7c0.5-0.5,1.1-1,1.7-1.4c0.6-0.4,1.3-0.8,2-1.1
		c0.7-0.3,1.4-0.5,2.2-0.7c0.8-0.2,1.6-0.2,2.4-0.2s1.6,0.1,2.4,0.2c0.7,0.2,1.5,0.4,2.2,0.7c0.7,0.3,1.4,0.7,2,1.1
		c0.6,0.4,1.2,0.9,1.7,1.4c0.5,0.5,1,1.1,1.4,1.7c0.4,0.6,0.8,1.3,1.1,2c0.3,0.7,0.5,1.4,0.7,2.2c0.2,0.8,0.2,1.6,0.2,2.4
		s-0.1,1.6-0.2,2.4c-0.2,0.7-0.4,1.5-0.7,2.2c-0.3,0.7-0.7,1.4-1.1,2c-0.4,0.6-0.9,1.2-1.4,1.7c-0.5,0.5-1.1,1-1.7,1.4
		c-0.6,0.4-1.3,0.8-2,1.1c-0.7,0.3-1.4,0.5-2.2,0.7C13.6,23.6,12.8,23.7,12,23.7z M12,1.9c-5.6,0-10,4.4-10,10s4.4,10,10,10
		s10-4.4,10-10S17.6,1.9,12,1.9z"/>
	<path class="st0" d="M15.6,16.3c-0.2,0-0.4-0.1-0.6-0.2l-3.6-3.6c-0.1-0.1-0.2-0.4-0.2-0.6v-6c0-0.4,0.4-0.8,0.8-0.8
		s0.8,0.4,0.8,0.8v5.6l3.4,3.4c0.1,0.2,0.2,0.4,0.2,0.7c0,0.2-0.1,0.4-0.2,0.5C16,16.2,15.8,16.3,15.6,16.3z"/>
</g>
</svg>
