<?xml version="1.0" encoding="utf-8"?>
<!-- Generator: Adobe Illustrator 23.0.5, SVG Export Plug-In . SVG Version: 6.00 Build 0)  -->
<svg version="1.1" id="Layer_1" xmlns="http://www.w3.org/2000/svg" xmlns:xlink="http://www.w3.org/1999/xlink" x="0px" y="0px"
	 viewBox="0 0 24 24" style="enable-background:new 0 0 24 24;" xml:space="preserve">
<style type="text/css">
	.st0{fill:#585858;}
</style>
<title></title>
<g id="Capa_2">
	<g id="Outline">
		<g id="SaladBowl">
			<path class="st0" d="M2.5,14.3c0,5.2,4.3,9.5,9.5,9.5s9.5-4.2,9.5-9.5l0,0c0-0.2-0.2-0.4-0.4-0.4H2.9C2.7,13.9,2.5,14,2.5,14.3z
				 M20.7,14.6c0,0.6-0.1,1.2-0.3,1.8H3.6c-0.1-0.6-0.2-1.2-0.3-1.8C3.3,14.6,20.7,14.6,20.7,14.6z M3.6,16.7h16.7
				c-1,3.7-4.4,6.3-8.3,6.3S4.7,20.3,3.6,16.7z"/>
			<path class="st0" d="M14.7,21.2c0.9-0.4,1.7-1,2.3-1.7c0.1-0.1,0.2-0.1,0.2,0c0.1,0.1,0.1,0.2,0,0.2l0,0
				c-0.7,0.8-1.5,1.4-2.4,1.8c0,0,0,0-0.1,0s-0.2-0.1-0.2-0.2C14.6,21.3,14.7,21.2,14.7,21.2L14.7,21.2z"/>
			<path class="st0" d="M20,5.4c0.8-0.8,0.6-2,0.6-2c0-0.2-0.2-0.4-0.5-0.3c-0.1,0-0.1,0-0.2,0.1l-1.7,1.5L18.7,2
				c0-0.2-0.1-0.4-0.3-0.5c-0.1,0-0.2,0-0.2,0c-0.1,0-1.3,0.5-1.6,1.7c-0.2,0.5-0.1,1.1,0.2,1.7c-0.3-0.1-0.7,0-1,0.1
				c-0.6,0.2-1,0.6-1.3,1.3c-0.1,0.2-0.2,0.4-0.2,0.6l0,0c-0.4,1.5-0.7,4-0.6,5.3c0,0.4,0.3,0.8,0.7,1c0.1,0.1,0.3,0.1,0.5,0.1
				c0.3,0,0.5-0.1,0.7-0.3c0.6-0.5,1.4-1.4,2.1-2.2c0.6-0.7,1-1.3,1.3-1.8l0,0c0.1-0.2,0.2-0.4,0.3-0.6c0.3-0.7,0.3-1.3,0.1-1.8
				C19.3,6.4,19.2,6.2,19,6C19.4,5.9,19.7,5.7,20,5.4z M17.4,6L17.4,6L17.4,6L17.4,6L17.4,6L17.4,6L17.4,6L17.4,6L17.4,6
				c0.1,0,0.9,0.3,1.2,0.9c0.2,0.3,0.1,0.7-0.1,1.2c-0.1,0.1-0.1,0.3-0.2,0.4l-0.7-0.3c-0.1,0-0.2,0-0.2,0.1s0,0.2,0.1,0.2l0,0
				l0.6,0.3c-0.3,0.5-0.7,1-1.1,1.5l-1.3-0.6c-0.1,0-0.2,0-0.2,0.1s0,0.2,0.1,0.2l1.2,0.5c-0.6,0.8-1.4,1.5-1.9,1.9
				c-0.1,0.1-0.4,0.1-0.5,0s-0.1-0.1-0.1-0.2c0-1.2,0.2-3.4,0.5-4.8L16.1,8c0,0,0,0,0.1,0s0.2-0.1,0.2-0.2s0-0.1-0.1-0.1L15,7
				c0-0.1,0.1-0.3,0.2-0.4c0.2-0.4,0.5-0.7,0.8-0.8C16.6,5.5,17.4,5.9,17.4,6L17.4,6z M17.8,2.7l-0.4,1.8c-0.1-0.4-0.2-0.7-0.1-1.1
				C17.4,3.2,17.6,2.9,17.8,2.7L17.8,2.7z M19.7,4.3c-0.1,0.2-0.2,0.4-0.3,0.5C19.3,5,19,5.1,18.7,5.2L19.7,4.3z"/>
			<path class="st0" d="M9.6,7.3C9,5.8,7.7,4.9,6.4,4.9l0,0l0,0c-0.3-0.7-1.1-1-1.9-0.7C4.2,4.3,3.9,4.6,3.8,4.9
				c-0.2,0.3-0.2,0.7-0.1,1C3.8,6,3.9,6.2,4,6.3C3.4,7.2,3.3,8.5,3.8,9.7C4.3,11.1,5.6,12,7,12c0.2,0.3,0.6,0.5,1,0.5
				c0.2,0,0.4,0,0.5-0.1c0.7-0.3,1-1,0.8-1.6l0,0C10,9.9,10.1,8.5,9.6,7.3z M8.5,10.6c-0.1,0.2-0.1,0.4,0,0.5c0,0,0,0.1,0.1,0.1
				c0.1,0.2-0.1,0.4-0.3,0.5c-0.3,0.1-0.5,0-0.6-0.2l0,0c0-0.2-0.2-0.3-0.4-0.3C6.1,11.3,5,10.6,4.5,9.4c-0.4-1-0.3-2.2,0.3-2.9
				C4.9,6.3,4.9,6,4.7,5.9c0,0-0.1,0-0.1-0.1c-0.1,0-0.2-0.1-0.2-0.2s0-0.2,0-0.4C4.6,5.1,4.7,5,4.8,4.9c0.3-0.1,0.7,0,0.8,0.2v0.1
				c0,0.2,0.2,0.4,0.4,0.4c0,0,0,0,0.1,0s0.2,0,0.3,0c1,0,2.1,0.8,2.5,1.9C9.3,8.6,9.2,9.8,8.5,10.6z"/>
			<path class="st0" d="M8,10.1L8,10.1c-0.2,0-0.2-0.1-0.2-0.1c0-0.1,0-0.1,0.1-0.1C8.3,9.5,8.5,9,8.3,8.5c0-0.1,0-0.2,0.1-0.2
				s0.2,0,0.2,0.1C8.9,9,8.6,9.8,8,10.1L8,10.1L8,10.1z"/>
			<path class="st0" d="M11.6,12.5c0,0.4,0.3,0.7,0.7,0.7s0.7-0.3,0.7-0.7s-0.3-0.7-0.7-0.7l0,0C12,11.8,11.6,12.1,11.6,12.5z
				 M12,12.5c0-0.2,0.2-0.4,0.4-0.4s0.4,0.2,0.4,0.4s-0.2,0.4-0.4,0.4l0,0C12.1,12.9,12,12.7,12,12.5z"/>
			<path class="st0" d="M8.6,3c0-0.5-0.4-0.9-0.9-0.9C7.3,2.1,6.9,2.5,6.9,3s0.4,0.9,0.9,0.9C8.2,3.9,8.6,3.5,8.6,3z M8.3,3
				c0,0.3-0.2,0.5-0.5,0.5C7.4,3.5,7.2,3.3,7.2,3s0.2-0.5,0.5-0.5C8,2.4,8.3,2.7,8.3,3z"/>
			<path class="st0" d="M21.2,10.2c0-0.5-0.4-0.9-0.9-0.9s-0.9,0.4-0.9,0.9s0.4,0.9,0.9,0.9l0,0C20.8,11.1,21.2,10.7,21.2,10.2z
				 M20.9,10.2c0,0.3-0.3,0.6-0.6,0.6c-0.3,0-0.6-0.3-0.6-0.6s0.3-0.6,0.6-0.6l0,0C20.6,9.6,20.9,9.9,20.9,10.2z"/>
			<path class="st0" d="M3.7,12.2c0,0.3,0.2,0.5,0.5,0.5s0.5-0.2,0.5-0.5s-0.2-0.5-0.5-0.5l0,0C3.9,11.7,3.7,11.9,3.7,12.2z M4,12.2
				C4,12.1,4.1,12,4.2,12s0.2,0.1,0.2,0.2s-0.1,0.2-0.2,0.2l0,0C4.1,12.4,4,12.3,4,12.2z"/>
			<path class="st0" d="M15.6,1.8c0-0.3-0.2-0.5-0.5-0.5s-0.5,0.2-0.5,0.5s0.2,0.5,0.5,0.5l0,0C15.4,2.3,15.6,2.1,15.6,1.8z
				 M15.3,1.8c0,0.1-0.1,0.2-0.2,0.2c-0.1,0-0.2-0.1-0.2-0.2s0.1-0.2,0.2-0.2l0,0C15.2,1.6,15.3,1.7,15.3,1.8z"/>
			<path class="st0" d="M12.5,7.5c0.7-0.9,1.5-2.4,1.1-3.9c-0.3-1.3-1.3-2.4-3.1-3.3c-0.2-0.1-0.4,0-0.5,0.2l0,0
				C9.5,1.6,9,2.6,9.2,3.8c0.1,1.4,1,2.6,2.7,3.8c0,0,0.1,0,0.1,0.1c-0.1,0.9-0.2,1.6-0.5,2.1c0,0.1,0,0.2,0.1,0.2l0,0
				c0,0,0,0,0.1,0s0.1,0,0.1-0.1c0.3-0.6,0.5-1.4,0.5-2.3C12.4,7.6,12.4,7.6,12.5,7.5C12.4,7.5,12.5,7.5,12.5,7.5L12.5,7.5z
				 M12.3,6.3c-0.1-1.1-0.3-2.2-0.7-3c0-0.1-0.1-0.1-0.2-0.1c-0.1,0-0.1,0.1-0.1,0.2l0,0C11.7,4.3,12,5.5,12,6.7c-1.3-1-2-2-2.1-3
				c0-0.8,0.3-1.7,0.6-2.5c1.3,0.7,2.1,1.6,2.3,2.5C13.1,4.7,12.7,5.6,12.3,6.3L12.3,6.3z"/>
		</g>
	</g>
</g>
</svg>
