<svg id="Layer_1" data-name="Layer 1" xmlns="http://www.w3.org/2000/svg" viewBox="0 0 1080 296.64"><defs><style>.cls-1{fill:#fff;}</style></defs><title>redmango white</title><path class="cls-1" d="M1057.28,170.65V181c-7.42,14.79-17.17,26.66-35.38,27.55-17,.8-34.48.42-43.51-16.72-10.28-19.58-11.14-40.13,2.41-59.41,9.17-1.1,16.83,2.38,24.17,7,0,0,.07.07.1.07s-.1.1-.17.13c-2,17-2.79,33.93,1.11,50.72,1.1,4.73,2.51,11,9,10.48,5.1-.41,6.86-5.55,7.62-10.13,1.45-8.93,2.59-18,3.83-26.93a8.93,8.93,0,0,1-.83-.76c.21-.21.45-.41.65-.62l.21-.21C1038.83,157.62,1048.28,163.37,1057.28,170.65Z"/><path class="cls-1" d="M464.19,246.51c-11.35,20.12-31.76,25.16-51.67,31H395.28C389.16,266.3,377,259.16,373.74,246c1.42-2.56,3.45-4.91,6.26-5.32,20.41-3,35.38-16.66,52.38-26.33,10.5-.35,13.79,8.43,18.33,15.11C454.82,235.48,460.51,240.19,464.19,246.51Z"/><path class="cls-1" d="M374.62,246.49c7.9,9.68,21.27,15.71,20.66,31H374.59c-18.78-7.75-40.28-11-51.66-31-5.3-8.29-6.68-17.45-6.08-27.07,1.66-5.29,5.52-6.95,10.68-6.47C343.63,223.54,359.75,234.14,374.62,246.49Z"/><path class="cls-1" d="M1057.28,150v20.69c-11,1-19.45-9.34-30.79-6.93a8.93,8.93,0,0,1-.83-.76c.21-.21.45-.41.65-.62-1-7.41-1.89-14.79-3-22.2-.79-5.62-1.38-12.76-7.93-13.52-8.24-1-8.38,7.24-10.45,12.76,0,0,.07.07.1.07s-.1.1-.17.13c-10.07,4.42-16-5-24.1-7.17C1005.52,105.76,1043.55,114.48,1057.28,150Z"/><path class="cls-1" d="M496,156.66c-.2-6.31-1.14-12.7-.41-18.9s-4.36-16.54,5-17.21c8.29-.58,20.14-9.34,26.27,5.27,2.37,5.64,5.36,1,7.68-.63,12-8.63,24.22-10.94,35.55.52,5,5,7.52,2.21,11.33-.76,9.92-7.72,21.24-9.32,32.26-3.7,10.54,5.38,8.88,16.31,8.89,26,0,16.67-.38,33.35.2,50,.49,14-9.52,9.8-16.65,10.27-7.45.49-15.23,1.59-14.69-10.53.72-16.06.4-32.17.14-48.26-.09-5.76,2.56-14.67-6.7-14.69-7.15,0-9,7.9-9.86,14.25-.72,5.1-.68,10.3-1,15.45-14.45,2.12-22.31-7.28-29.91-17.13-1-6.2-.12-13.71-9.84-13.56-9.41,6.75-18.72,7.49-27.37-1.22C498.38,138.69,508.71,152.67,496,156.66Z"/><path class="cls-1" d="M758,146.71c-.2-4-.9-8-.49-12,.6-6-3.68-15.63,8-14.9,9,.56,22.46-8.06,24.38,10.62,5.37-3.39,9.82-7,14.86-9.25,19.85-9,34.48,0,35,21.82.44,17.74-.56,35.54.33,53.25.67,13.23-7.71,11.37-15.64,11.38s-16.39,1.94-15.71-11.29c.85-16.57.3-33.21.12-49.82-.06-5,.27-11.54-6.24-12.4-5.85-.77-8.32,4.87-10.61,9.57-4.16,8.57-3.26,17.89-4.18,26.94C769.24,174.35,760.78,167.57,758,146.71Z"/><path class="cls-1" d="M77.56,167.27c-4.24-3.07,1.51-4.24,3.07-5.24,9.24-5.93,10.68-14.34,8.1-24-2.83-10.58-12-14-21-15.06-11.31-1.35-22.93-.07-34.37-.76-8.31-.52-10.83,2.44-10.62,10.65.51,20.65.41,41.34.06,62-.17,8.86-.24,14.69,12.11,14.65,12-.07,13.06-5.13,12.31-14.41a170,170,0,0,1,0-18.89c.1-3.14-1.24-7.28,3.48-8.45,4.42-1,7.59.93,10.38,4.38,3.59,4.48,3.07,9.65,3.21,14.76.62,23.51.62,23.51,26.65,20.85C85.69,194.41,92.24,177.82,77.56,167.27ZM54.77,160.1c-12.55.83-5.8-9.41-8.14-14.93,3-4.9-4.86-15.17,7.07-15.34,8.72-.14,13.2,6.31,13.41,14.75C67.28,152.79,64,159.51,54.77,160.1Z"/><path class="cls-1" d="M193.3,122.21c-6.93,1.79-5.48,6.17-5.51,10.31-.18,17.75-.07,35.51-.07,53.27,0,23.2,0,23.2,23.58,23.17,33-.07,45.31-9.86,46.34-36.86C259.23,130.21,234.88,111.52,193.3,122.21Zm35,74.44c-3.52,4.79-8.24,6-13.55,5.2-6.83-1-4.72-6.75-4.83-10.89-.27-8.52-.1-17.07-.1-25.62s-.17-17.1.07-25.65c.14-4.11-1.83-9.69,5.27-10.45,5.52-.62,10,1.1,13.28,5.83C235.13,144.62,235,187.48,228.3,196.65Z"/><path class="cls-1" d="M954.15,204.16c-1.48-10.79-9.14-14.41-18.79-17-12.69-3.38-25,1.17-37.45.28-11-.8-11.37-5.42-5-12.83-3-4.45-6.8-6.34-12-3.93-4,8.65-18.44,11.17-16.17,22.34,2.14,10.38,10.83,19.27.52,30.48-2.24,2.48,4.14,9,9.27,10.55,23.21,7,46.24,6.48,68.41-3.58C954,225.44,955.63,215.09,954.15,204.16Zm-48,25.72c-8.65-1.24-21.58,2.42-21.55-8.65,0-9.86,12.62-8.72,20.89-8.79,8.83-.11,22.55-1.14,22.52,8.58C928,232.09,914,228.4,906.19,229.88Z"/><path class="cls-1" d="M386.6,67.61c27.24,9.79,49.71,25,60.41,53.46,2.2,5.84,4.59,11.71,3.6,18.22a8.63,8.63,0,0,1,1.44,6.52c-.53,3.73,2.24,9.08-2.42,10.82-5.28,2-8.22-3-10.44-6.86-12.1-20.69-28-37.6-48.83-49.61-5.43-2.44-6.11-8.91-10.56-12.27,3.21,3.78,5.38,7.7,1.58,12.34-9.24,4.78-1.7,19.61-13.62,22.79-8.7-9.37-.64-22.78-7.84-32.41-6.38-.91-2.14,10.43-9.51,8.27-3.27-2.58-4.27-6.42-5.68-10a62.57,62.57,0,0,1-2.85-11.46c.47-3.94.43-8,3.08-11.41,9.56-2,19.1-4,29-3.34C378.64,63.06,383.45,63.24,386.6,67.61Z"/><path class="cls-1" d="M726.35,148.38c-.38,14.31-.38,28.65-.55,43-11.35,7.58-20.17-.9-29.73-4.62a5.26,5.26,0,0,1-.72-.69,4.65,4.65,0,0,1-.72-.76l1.24-.83q-.68-12.87-1.35-25.79c-9.38,1-11.72,8.07-16.1,12.83a1.82,1.82,0,0,1,.31.31.85.85,0,0,1-.31,0h0c-6-2-10.24-5.86-11.93-12.17,7.13-3.45,14.48-6.58,21.37-10.48,6-3.38,9-8.9,6.76-15.93-2.14-6.69-7.76-7.62-13.86-7.52-7.17.11-11.79,2.9-13.48,10.49-.79,3.72,3.66,9.89-3.59,10.89-2.89.38-7.72,1-9-3-1.83-5.52-1.76-11.21,2.24-16.24,7.24-9.17,38.92-12.9,55.75-7.31C727.17,125.38,726.69,136.58,726.35,148.38Z"/><path class="cls-1" d="M170.42,208.79c-17.87,0-35.75.19-53.62-.1-6.27-.1-4.56-5.56-4.58-9.16q-.21-33.57,0-67.15c0-3.6-1.78-9.4,4-9.64,14.89-.62,29.83-.3,44.74-.13,1.17,0,3,1.67,3.33,2.87.69,2.69-1.13,4.18-3.73,4.35a65.85,65.85,0,0,1-10.31.23c-9.29-.86-15.15.56-14.69,12.49.38,10,1.08,16.73,13.67,15,3.74-.52,10.81-2.77,11,4.05s-6.9,4.89-10.74,4.47c-20.07-2.18-12,12.74-13.55,21.72-2.19,12.21,4.39,14.42,14.78,13.71,6.52-.44,13.51-1.6,19.73,1.67Z"/><path class="cls-1" d="M391.82,98.31c22.41,7.82,35.32,26,48,44.31,2.54,3.7,4.45,7.82,7.38,13,5.25-5.52,2.35-11.44,3.44-16.37,5.21,11.44,2.77,23.65,3.42,35.53.79,14.3,1.42,27.76,11.88,39.92,8,9.36,5.07,21.47-1.72,31.77-10.46-.45-12.73-9.94-17.71-16.3-4.09-5.24-6.51-11.91-13.27-14.75-2.77-4.91-1.64-10.2-.66-15.1,6.54-32.57-4.4-58.35-29.84-78.68-3.53-2.07-.87-8.8-6.88-9.09C391.47,108.66,389.3,104.14,391.82,98.31Z"/><path class="cls-1" d="M496,156.66c5.38-7.72,1.68-16.47,2.75-24.68.43-3.28-.25-7.09,3.83-8.51,3.17-1.1,5.55.72,6.84,3.41,5.83,12.19,15.72,7.6,24.87,6.2-13.52,17.36-7.82,37.72-7.17,56.58.58,16.71-5.93,19.16-19.85,18.19-8.39-.59-12.67-2.09-12-11.65C496.06,183.06,495.76,169.84,496,156.66Z"/><path class="cls-1" d="M737.31,202.89c-11.27,5.69-22.89,10.2-34.3,1.62-7.49-5.62-11.52.31-16.9,2.24-15.86,5.76-31.55.65-36.86-12.1-6.2-14.83-.34-26.79,17.21-35.07a23.79,23.79,0,0,1,12,11.9,1.82,1.82,0,0,1,.31.31.85.85,0,0,1-.31,0c-.07,3.24-.17,6.52-.24,9.8-.07,5.75.28,12.68,6.28,14.23,7.24,1.87,9.1-4.3,10.89-9.75a4.65,4.65,0,0,1-.72-.76l1.24-.83c10.65-.72,18.86,9.31,29.93,6.9C724.18,200.44,735.45,195.58,737.31,202.89Z"/><path class="cls-1" d="M374.67,66.4c-10.33,2.34-21.55-2.27-31.38,4-3.27,3.21-6.86,3.8-10.82,1.31-4.3-4-12.4-6.53-5.59-14.73.89-5.84-3.7-11.49-.62-17.41,14-.22,18.51,10.67,26.11,24.51,0-13.62,1.59-23.31,10-29.83,7.77-6,16.52-10.22,26.22-11.41,9.47-1.17,17.4.59,14.11,13.45C396.37,49.14,391.26,63.12,374.67,66.4Z"/><path class="cls-1" d="M926.84,117.76C951,143.24,952,146.58,940.46,163.89c-9.24,4.45-16-2.65-23.82-5a10.25,10.25,0,0,1-1.11-1,6.89,6.89,0,0,1-.51-.55c.38-.14.75-.27,1.17-.45-.66-6.75-.83-13.58-2.1-20.24-.8-4.27-2.25-9.62-7.83-9.79s-6.76,5.14-8.35,9.35a7.34,7.34,0,0,1,1.45,1l-1.48,1-.14.1c-9.62,1.28-18,.38-19.51-11.72,4.17-4.11,9.1-7.17,14.93-7.49,12-.58,23.48,1.28,27.92-15.86,2.18-8.3,14.69-6.82,22.73-2.93,4.62,2.24,4.62,7.69,3.24,12.24-1.31,4.38-4.66,6.31-9.31,5.11C934.15,116.66,930.53,114.28,926.84,117.76Z"/><path class="cls-1" d="M343.52,77.53c4.09,2.5,3.35,6.64,3.54,10.45,3.37,16.25-9.42,23.06-18.62,32-3.93,2.27-8,4.27-11.83,6.77-4.09,1.36-8.49.83-12.6,2.09a22.75,22.75,0,0,0-10.57,5.81c-3.33,2.43-6.05,6.34-11.09,4.7,5.26-23.07,13.32-44.26,37-54.93C327.57,82.65,333.31,72.2,343.52,77.53Z"/><path class="cls-1" d="M940.46,163.89c-13.27,15.07-30,14.66-47.54,10.76l-12-3.93c-18.48-13.17-19.38-28.65-2.65-44.2,4.69,7,11.58,9.55,19.68,9.62a7.34,7.34,0,0,1,1.45,1l-1.48,1c0,5-.24,10,.1,15,.35,5.55-.1,12.27,7,14,7.52,1.82,8-5,10.55-9.35a6.89,6.89,0,0,1-.51-.55c.38-.14.75-.27,1.17-.45C925.77,154.1,932,162.86,940.46,163.89Z"/><path class="cls-1" d="M544.09,146.64c10.83,4.21,18.36,14.19,29.91,17.13.2,8.59-.59,17.33.8,25.72,2.71,16.38-5,19.14-19.21,18.47-10.07-.47-12.75-3.82-12.29-13.23C544.08,178.72,543.88,162.67,544.09,146.64Z"/><path class="cls-1" d="M758,146.71c3.52,16,15,22,29.83,23.94.2,6.29-.32,12.7.72,18.84,2.71,15.95-4.54,19.48-19.08,18.58-10-.63-12.75-3.87-12.28-13.3C758,178.78,757.8,162.73,758,146.71Z"/><path class="cls-1" d="M308.91,233.16c-10.68-7.7-11.48-20.83-17.18-31.26,1.16-6.36,5.06-11.14,9-15.9a12.92,12.92,0,0,1,6.08-3.48c9.79.17,11.46,9.47,16.66,14.81,2.51,8.92-8.38,14.16-6.33,23C315.53,225.3,313.39,230,308.91,233.16Z"/><path class="cls-1" d="M287.6,192.31c-6.07-11.38-7.84-23.09-2.8-35.35,2.2-7.65,7.8-12.17,14.45-15.75a8.86,8.86,0,0,1,7,1.08c4,5.13,5.69,11.28,7.53,17.37-.53,8.09-8.29,10.37-12.46,15.54-3.85,2.39-5.18,6.1-5.34,10.43C294.13,189,291.75,191.79,287.6,192.31Z"/><path class="cls-1" d="M326.26,39.58c-1.18,5.85,11.61,11.21.62,17.41-2.75-1.83-6.15-3.15-8.13-5.61-3.89-4.85-14-8.64-10.09-14.82C312.06,31.26,320.45,36.85,326.26,39.58Z"/><path class="cls-1" d="M298.9,142.8A35.32,35.32,0,0,1,284.8,157c-4.8-5.33-3.63-11.48-2.45-17.65l9.87-6.92C299,132.94,300.09,137.15,298.9,142.8Z"/><path class="cls-1" d="M308.91,233.16c-1.11-6.46,3.27-10.19,7.06-14.22a2.07,2.07,0,0,1,3.11-.21,66.35,66.35,0,0,1,3.85,27.75C315.8,244.63,311.83,239.44,308.91,233.16Z"/><path class="cls-1" d="M374.67,66.4a112.38,112.38,0,0,0,28-30.1c.33,13.36-8.25,22.14-16.09,31.31Z"/><path class="cls-1" d="M343.52,77.53c-8.53.62-15,8.36-24.17,6.85,1-7.72,10.8-6.32,13.12-12.67l10.82-1.3C347.39,72.65,344,75.14,343.52,77.53Z"/><path class="cls-1" d="M287.6,192.31c1.78-3.56,4-6.65,7.93-8.16,3.68-1,5.66.71,6.54,4.14-3,4.86-4.11,11.18-10.34,13.61C287.85,199.79,288.15,195.86,287.6,192.31Z"/><path class="cls-1" d="M1005,139.38s.07.07.1.07-.1.1-.17.13A.37.37,0,0,0,1005,139.38Z"/><path class="cls-1" d="M1026.49,163.72a8.93,8.93,0,0,1-.83-.76c.21-.21.45-.41.65-.62C1026.35,162.79,1026.42,163.27,1026.49,163.72Z"/><path class="cls-1" d="M402.21,119c27.37,9.3,39.61,49.91,36.8,68.54-1.38,9.21-.22,19.47-5.8,28-15.56,17.83-36.22,26-58.59,31-17.77-6.73-33.9-15.82-45.27-31.7-2.64-7.26,1.07-10,7.61-10.86,5.71,1.45,10.08,5.36,15,8.27,22.17,13.1,44.77,11.85,58.48-3.25,15.37-16.93,15.57-45.66,1-65.35C406.17,136.44,394.88,131,402.21,119Z"/><path class="cls-1" d="M336.66,205.15a13.31,13.31,0,0,0-7.31,9.64c-3.61.83-8-.33-10.27,3.94a20.23,20.23,0,0,1-3.11.21c-6.15-9.85,4.37-13.81,7.24-20.48a7.37,7.37,0,0,1,3.86-2.56,10,10,0,0,1,10.22,4.8A4.88,4.88,0,0,1,336.66,205.15Z"/><path class="cls-1" d="M312.49,160.3c-5.35-4.43-7.08-10.31-6.81-17-1.79-2.52-.21-4.23,1.4-5.94,4.12-3.4,9.51-4.36,13.89-7.28,3.06-2.16,5.81-4.72,8.77-7,9.52-6.1,12.18-18,20.89-24.75,3.69-2.63,2.7-6.7,3.45-10.35,1.88-9.15,4.33.77,6.55,0,9.12,19.28,1,35.38-9.4,51.06a48.94,48.94,0,0,1-9.15,8.75A131.59,131.59,0,0,1,328.2,156c-4.11,1.5-7.81,3.9-11.84,5.61A3.87,3.87,0,0,1,312.49,160.3Z"/><path class="cls-1" d="M391.82,98.31l6.8,13.83c1.56,11.49,6.19,22.84,1.7,34.64-1.87,6-5.11,10.8-11.44,12.84-5.2.9-9.82.25-12.7-4.88-2-5.85.3-11.16,2.05-16.54,5.65-12.92-2.27-26.87,3-39.82.68-8.78-8.28-11.7-12-20.17C380.72,82.11,385,91.75,391.82,98.31Z"/><path class="cls-1" d="M347,139.14c9.83-15.66,16.86-32.06,13.66-51.19,7.06,7.26,7.06,7.26,7.31,34.45a7.68,7.68,0,0,1,1.7,7c-2.89,7.35-6.65,13.87-15.31,15.57C350.58,144.68,347.84,143.07,347,139.14Z"/><path class="cls-1" d="M367.1,128.93l.84-6.53c4.58-3.94,3.34-9.35,3.22-14.25-.19-7.27,2.85-10.5,10.07-9.77,4,13.81,7.39,27.62.45,41.54C376.13,137.16,370.64,134.35,367.1,128.93Z"/><path class="cls-1" d="M350.63,98.33c-3.76,11.23-7.93,22.17-19.74,27.66-4-.82-6.18-2.9-4.81-7.29,6.92-10.29,19.63-16.62,21-30.72C351.33,90.37,350.14,94.64,350.63,98.33Z"/><path class="cls-1" d="M678.42,171.48a1.82,1.82,0,0,1,.31.31.85.85,0,0,1-.31,0Z"/><path class="cls-1" d="M695.87,184.44c-.17.52-.35,1-.52,1.59a4.65,4.65,0,0,1-.72-.76Z"/><path class="cls-1" d="M396.26,146.74c3.72-11.33,2.47-23,2.36-34.61,7-.8,1.95,4.78,3.59,6.81-1.38,8.78,4.75,13.55,10.07,18.7,16.39,15.87,17.35,36.06,12.32,55.77-7.07,27.73-34.16,39.19-62.92,28.73-9.7-3.53-18.54-8.58-25-17l.54-3.64a47.71,47.71,0,0,1,8.1-11.9,8.37,8.37,0,0,1,6.62,1.18c18.91,16.18,32.74,17.33,46,3.63,9.2-9.47,12.09-20.31,6.07-32.6C401.55,156.74,399.07,151.65,396.26,146.74Z"/><path class="cls-1" d="M897.91,136.14a7.34,7.34,0,0,1,1.45,1l-1.48,1C897.91,137.48,897.91,136.79,897.91,136.14Z"/><path class="cls-1" d="M916.19,156.82a11.52,11.52,0,0,0-.66,1,6.89,6.89,0,0,1-.51-.55C915.4,157.13,915.77,157,916.19,156.82Z"/><path class="cls-1" d="M322.55,133.41l-13.18,6.24c-5.61-2.72-11.14-5.49-8.13-13.42,4.67-2.76,9.4-4.37,14.39-.74C322.22,124.39,322.16,129.09,322.55,133.41Z"/><path class="cls-1" d="M301.24,126.23l8.13,13.42-3.69,3.66-6.78-.51-6.68-10.4C293.93,128.44,297.05,126.55,301.24,126.23Z"/><path class="cls-1" d="M322.55,133.41l-6.92-7.91c-.55-8.49,5.12-7.38,10.45-6.8l4.81,7.29C329.55,130.08,326.39,132.13,322.55,133.41Z"/><path class="cls-1" d="M325.87,198a10,10,0,0,1-2.66.51c-9.63.24-7.77-13.13-16.51-13.94a3.78,3.78,0,0,1-2-4,47.56,47.56,0,0,1,19.41-19.13,12.84,12.84,0,0,1,10.24,1.14c5.53,4.38,6.55,10.34,5.92,16.88a27.26,27.26,0,0,1-4.74,11.65C333.1,194.47,328.81,195.26,325.87,198Z"/><path class="cls-1" d="M306.81,180.69l-.12,3.83-4.62,3.77-6.54-4.14c-2.61-4.47-2.24-8,3.12-10C302.94,174.39,306.51,175.49,306.81,180.69Z"/><path class="cls-1" d="M306.81,180.69l-8.16-6.5c2.47-6.77,9.78-8.71,13.84-13.89l3.9-.57c3.8-.62,5.93,1.14,6.74,4.76Z"/><path class="cls-1" d="M325.87,198c-.44-5.3,2.78-7.17,7.31-7.83,4.18-1.94,8-2.07,11.06,2.06,3.59,7.6-4.07,6.69-7,9.32Z"/><path class="cls-1" d="M325.91,153.56l13.78-7.19a6.71,6.71,0,0,1,5.6,4.78c.16,8.08-4.89,10.47-11.81,10.82C328.81,161.1,325.09,159.38,325.91,153.56Z"/><path class="cls-1" d="M344.63,150.85l-4.94-4.48c.91-3.94,3.52-6.17,7.28-7.23l7.36,4.72C356.05,153.08,353.19,155.93,344.63,150.85Z"/><path class="cls-1" d="M325.91,153.56l6.52,7.79.07,1.07-9.37,2.07-6.74-4.76A11.07,11.07,0,0,1,325.91,153.56Z"/><path class="cls-1" d="M396.26,146.74c13.08,8,17.59,20,14.25,34.48S397.22,205.71,382.75,208c-13.32,2.1-26-1.31-32.14-15.86.56-6.72,5.4-10.89,9.3-15.64,6-3.74,13.28-5.23,18.55-10.29,3.19-2.89,6.31-5.9,10.14-8C393,155.58,394.63,151.18,396.26,146.74Z"/><path class="cls-1" d="M332.5,162.42l-.07-1.07c4.15-3.4,10.48-4.28,12.18-10.51,6.27,1.87,8.8-1.44,9.72-7,6.67-2.92,8.41-10.05,12.78-14.93,6.48,1.49,13.37,2.47,14.57,11q-2.28,6.84-4.54,13.68c-.76,5.05-3.86,8.61-7.44,11.9-4.28,3.41-8.28,7.16-12.57,10.57-6.58,2.63-12.63,7.12-20.33,5.91C337.11,175.08,336.24,168.43,332.5,162.42Z"/><path class="cls-1" d="M367.85,163.09c1.59-4.64,5-7.48,9.29-9.49l11.45,4.6c.45,5-3.06,7.09-6.62,9.16C376.25,169.27,371.38,168.4,367.85,163.09Z"/><path class="cls-1" d="M336.8,182c5.87-4.95,12.48-8.12,20.28-8.4a5.31,5.31,0,0,1,4.25,4.35c.27,7.63-7.14,9.46-10.72,14.19l-6.38,0-11-2Q335,186.05,336.8,182Z"/><path class="cls-1" d="M361.33,177.93l-4.25-4.35c.47-6.7,6.34-7.86,10.77-10.49L382,167.36C377,174.57,369.87,177.64,361.33,177.93Z"/></svg>